{"title":"Arrow S04E09 1080p HDTV X264-DIMENSION[rartv]","uid":12964925,"size":4050691768,"categoryP":"video","categoryS":"hd___tv_shows","magnet":"?xt=urn:btih:9cd19c7b60bc070f02e291e10cfe75fd1d09d046&amp;dn=Arrow+S04E09+1080p+HDTV+X264-DIMENSION%5Brartv%5D&amp;tr=udp%3A%2F%2Ftracker.leechers-paradise.org%3A6969&amp;tr=udp%3A%2F%2Fzer0day.ch%3A1337&amp;tr=udp%3A%2F%2Fopen.demonii.com%3A1337&amp;tr=udp%3A%2F%2Ftracker.coppersurfer.tk%3A6969&amp;tr=udp%3A%2F%2Fexodus.desync.com%3A6969","seeders":0,"leechers":3,"uploader":"cheerfulcaca","files":3,"time":1449881330,"description":"***FALL FINALE***\n\nSEASON 4, EPSIDOE 9 &quot;DARK WATERS&quot; OFFICIAL SYNOPSIS:\n\nAfter the city is attacked again, Oliver (Stephen Amell) makes a bold move against HIVE. Malcolm (John Barrowman) checks in on Thea (Willa Holland) and leaves her with a warning. Things take a horrible turn when Damien Darhk (guest star Neal McDonough) retaliates in a brutal manner at Oliver’s mayoral holiday party. John Behring directed the episode written by Wendy Mericle &amp; Ben Sokolowski.\n\n\nSERIES INFO:\n\n\n8.1/10·IMDb\n8.8/10·TV.com\n\nWhen presumed-dead billionaire playboy Oliver Queen returns home to Starling City after five years stranded on a remote island in the Pacific, he hides the ways the experience has changed him. As he reconnects with those closest to him, including his sister, Thea, Oliver appears to be the same wealthy, carefree bachelor they've always known. At night, flanked by his devoted friend, Diggle, Oliver uses his secret persona -- that of a vigilante -- to right societal wrongs and transform the city to its former glory.\n\n\nMEDIA INFO:\n\n\nVideo:\n\nID : 1\nFormat : AVC\nFormat/Info : Advanced Video Codec\nFormat profile :   \nFormat settings, CABAC : Yes\nFormat settings, ReFrames : 4 frames\nCodec ID : V_MPEG4/ISO/AVC\nDuration : 42mn 25s\nBit rate : 12.1 Mbps\nWidth : 1 920 pixels\nHeight : 1 080 pixels\nDisplay aspect ratio : 16:9\nFrame rate mode : Constant\nFrame rate : 23.976 fps\nColor space : YUV\nChroma subsampling : 4:2:0\nBit depth : 8 bits\nScan type : Progressive\nBits/(Pixel*Frame) : 0.243\nStream size : 3.58 GiB (95%)\nWriting library : x264 core 148 r2638 7599210\nEncoding settings : cabac=1 / ref=4 / deblock=1:-2:-2 / analyse=0x3:0x113 / me=umh / subme=9 / psy=1 / psy_rd=1.00:0.00 / mixed_ref=1 / me_range=24 / chroma_me=1 / trellis=1 / 8x8dct=1 / cqm=0 / deadzone=21,11 / fast_pskip=0 / chroma_qp_offset=-2 / threads=18 / lookahead_threads=2 / sliced_threads=0 / nr=0 / decimate=1 / interlaced=0 / bluray_compat=0 / constrained_intra=0 / bframes=5 / b_pyramid=2 / b_adapt=2 / b_bias=0 / direct=3 / weightb=1 / open_gop=0 / weightp=2 / keyint=250 / keyint_min=23 / scenecut=40 / intra_refresh=0 / rc_lookahead=50 / rc=crf / mbtree=1 / crf=17.0 / qcomp=0.60 / qpmin=0 / qpmax=69 / qpstep=4 / ip_ratio=1.40 / aq=1:1.00\nLanguage : English\nDefault : No\nForced : No\n\nAudio:\n\nID : 2\nFormat : AC-3\nFormat/Info : Audio Coding 3\nMode extension : CM (complete main)\nFormat settings, Endianness : Big\nCodec ID : A_AC3\nDuration : 42mn 25s\nBit rate mode : Constant\nBit rate : 384 Kbps\nChannel(s) : 6 channels\nChannel positions : Front: L C R, Side: L R, LFE\nSampling rate : 48.0 KHz\nCompression mode : Lossy\nDelay relative to video : 28ms\nStream size : 117 MiB (3%)\nDefault : Yes\nForced : No\n \nhttps://rarbg.to","torrent":{"xt":"urn:btih:9cd19c7b60bc070f02e291e10cfe75fd1d09d046","amp;dn":"Arrow+S04E09+1080p+HDTV+X264-DIMENSION%5Brartv%5D","amp;tr":["udp%3A%2F%2Ftracker.leechers-paradise.org%3A6969","udp%3A%2F%2Fzer0day.ch%3A1337","udp%3A%2F%2Fopen.demonii.com%3A1337","udp%3A%2F%2Ftracker.coppersurfer.tk%3A6969","udp%3A%2F%2Fexodus.desync.com%3A6969"],"infoHash":"9cd19c7b60bc070f02e291e10cfe75fd1d09d046","infoHashBuffer":{"type":"Buffer","data":[156,209,156,123,96,188,7,15,2,226,145,225,12,254,117,253,29,9,208,70]},"announce":[],"urlList":[]}}